solid configure2
facet normal 0.0 0.0 -1.0
  outer loop
    vertex 0.0 17.929999999999993 0.0
    vertex 0.25083944139798314 17.67916055860201 0.0
    vertex 0.0 0.0 0.0
  endloop
endfacet
facet normal 0.0 0.0 -1.0
  outer loop
    vertex 0.25083944139798314 17.67916055860201 0.0
    vertex 0.0 17.929999999999993 0.0
    vertex 17.929999999999993 17.929999999999993 0.0
  endloop
endfacet
facet normal 0.0 0.0 -1.0
  outer loop
    vertex 0.25083944139798314 17.67916055860201 0.0
    vertex 17.929999999999993 17.929999999999993 0.0
    vertex 17.679160558602007 17.67916055860201 0.0
  endloop
endfacet
facet normal 0.0 0.0 -1.0
  outer loop
    vertex 17.679160558602007 17.67916055860201 0.0
    vertex 17.929999999999993 17.929999999999993 0.0
    vertex 17.679160558602007 0.25083944139798314 0.0
  endloop
endfacet
facet normal 0.0 0.0 -1.0
  outer loop
    vertex 0.0 0.0 0.0
    vertex 0.25083944139798314 0.25083944139798314 0.0
    vertex 17.929999999999993 0.0 0.0
  endloop
endfacet
facet normal 0.0 0.0 -1.0
  outer loop
    vertex 0.25083944139798314 0.25083944139798314 0.0
    vertex 0.0 0.0 0.0
    vertex 0.25083944139798314 17.67916055860201 0.0
  endloop
endfacet
facet normal 0.0 0.0 -1.0
  outer loop
    vertex 17.929999999999993 0.0 0.0
    vertex 0.25083944139798314 0.25083944139798314 0.0
    vertex 17.679160558602007 0.25083944139798314 0.0
  endloop
endfacet
facet normal 0.0 0.0 -1.0
  outer loop
    vertex 17.929999999999993 0.0 0.0
    vertex 17.679160558602007 0.25083944139798314 0.0
    vertex 17.929999999999993 17.929999999999993 0.0
  endloop
endfacet
facet normal -0.0 -0.0 1.0
  outer loop
    vertex 0.0 0.0 4.0
    vertex 0.25083944139798314 0.25083944139798314 4.0
    vertex 0.0 17.929999999999993 4.0
  endloop
endfacet
facet normal -0.0 -0.0 1.0
  outer loop
    vertex 0.25083944139798314 0.25083944139798314 4.0
    vertex 0.0 0.0 4.0
    vertex 17.929999999999993 0.0 4.0
  endloop
endfacet
facet normal -0.0 -0.0 1.0
  outer loop
    vertex 0.25083944139798314 0.25083944139798314 4.0
    vertex 17.929999999999993 0.0 4.0
    vertex 17.679160558602007 0.25083944139798314 4.0
  endloop
endfacet
facet normal -0.0 -0.0 1.0
  outer loop
    vertex 17.679160558602007 0.25083944139798314 4.0
    vertex 17.929999999999993 0.0 4.0
    vertex 17.679160558602007 17.67916055860201 4.0
  endloop
endfacet
facet normal -0.0 -0.0 1.0
  outer loop
    vertex 0.0 17.929999999999993 4.0
    vertex 0.25083944139798314 17.67916055860201 4.0
    vertex 17.929999999999993 17.929999999999993 4.0
  endloop
endfacet
facet normal -0.0 -0.0 1.0
  outer loop
    vertex 0.25083944139798314 17.67916055860201 4.0
    vertex 0.0 17.929999999999993 4.0
    vertex 0.25083944139798314 0.25083944139798314 4.0
  endloop
endfacet
facet normal -0.0 -0.0 1.0
  outer loop
    vertex 17.929999999999993 17.929999999999993 4.0
    vertex 0.25083944139798314 17.67916055860201 4.0
    vertex 17.679160558602007 17.67916055860201 4.0
  endloop
endfacet
facet normal -0.0 -0.0 1.0
  outer loop
    vertex 17.929999999999993 17.929999999999993 4.0
    vertex 17.679160558602007 17.67916055860201 4.0
    vertex 17.929999999999993 0.0 4.0
  endloop
endfacet
facet normal -1.0 0.0 0.0
  outer loop
    vertex 0.0 17.929999999999993 4.0
    vertex 0.0 0.0 0.0
    vertex 0.0 0.0 4.0
  endloop
endfacet
facet normal -1.0 0.0 0.0
  outer loop
    vertex 0.0 0.0 0.0
    vertex 0.0 17.929999999999993 4.0
    vertex 0.0 17.929999999999993 0.0
  endloop
endfacet
facet normal -0.0 1.0 0.0
  outer loop
    vertex 0.0 17.929999999999993 4.0
    vertex 17.929999999999993 17.929999999999993 0.0
    vertex 0.0 17.929999999999993 0.0
  endloop
endfacet
facet normal -0.0 1.0 0.0
  outer loop
    vertex 17.929999999999993 17.929999999999993 0.0
    vertex 0.0 17.929999999999993 4.0
    vertex 17.929999999999993 17.929999999999993 4.0
  endloop
endfacet
facet normal 1.0 0.0 0.0
  outer loop
    vertex 17.929999999999993 17.929999999999993 0.0
    vertex 17.929999999999993 0.0 4.0
    vertex 17.929999999999993 0.0 0.0
  endloop
endfacet
facet normal 1.0 0.0 0.0
  outer loop
    vertex 17.929999999999993 0.0 4.0
    vertex 17.929999999999993 17.929999999999993 0.0
    vertex 17.929999999999993 17.929999999999993 4.0
  endloop
endfacet
facet normal -0.0 -1.0 -0.0
  outer loop
    vertex 17.929999999999993 0.0 4.0
    vertex 0.0 0.0 0.0
    vertex 17.929999999999993 0.0 0.0
  endloop
endfacet
facet normal -0.0 -1.0 -0.0
  outer loop
    vertex 0.0 0.0 0.0
    vertex 17.929999999999993 0.0 4.0
    vertex 0.0 0.0 4.0
  endloop
endfacet
facet normal -0.0 -1.0 -0.0
  outer loop
    vertex 17.679160558602007 17.67916055860201 4.0
    vertex 0.25083944139798314 17.67916055860201 0.0
    vertex 17.679160558602007 17.67916055860201 0.0
  endloop
endfacet
facet normal -0.0 -1.0 -0.0
  outer loop
    vertex 0.25083944139798314 17.67916055860201 0.0
    vertex 17.679160558602007 17.67916055860201 4.0
    vertex 0.25083944139798314 17.67916055860201 4.0
  endloop
endfacet
facet normal 1.0 0.0 0.0
  outer loop
    vertex 0.25083944139798314 17.67916055860201 0.0
    vertex 0.25083944139798314 0.25083944139798314 4.0
    vertex 0.25083944139798314 0.25083944139798314 0.0
  endloop
endfacet
facet normal 1.0 0.0 0.0
  outer loop
    vertex 0.25083944139798314 0.25083944139798314 4.0
    vertex 0.25083944139798314 17.67916055860201 0.0
    vertex 0.25083944139798314 17.67916055860201 4.0
  endloop
endfacet
facet normal -0.0 1.0 0.0
  outer loop
    vertex 0.25083944139798314 0.25083944139798314 4.0
    vertex 17.679160558602007 0.25083944139798314 0.0
    vertex 0.25083944139798314 0.25083944139798314 0.0
  endloop
endfacet
facet normal -0.0 1.0 0.0
  outer loop
    vertex 17.679160558602007 0.25083944139798314 0.0
    vertex 0.25083944139798314 0.25083944139798314 4.0
    vertex 17.679160558602007 0.25083944139798314 4.0
  endloop
endfacet
facet normal -1.0 0.0 0.0
  outer loop
    vertex 17.679160558602007 17.67916055860201 4.0
    vertex 17.679160558602007 0.25083944139798314 0.0
    vertex 17.679160558602007 0.25083944139798314 4.0
  endloop
endfacet
facet normal -1.0 0.0 0.0
  outer loop
    vertex 17.679160558602007 0.25083944139798314 0.0
    vertex 17.679160558602007 17.67916055860201 4.0
    vertex 17.679160558602007 17.67916055860201 0.0
  endloop
endfacet
facet normal 0.0 0.0 -1.0
  outer loop
    vertex 4.56825405711102 8.373313324318996 0.0
    vertex 1.3582540571110195 3.763313324318997 0.0
    vertex 1.3582540571110195 8.373313324318996 0.0
  endloop
endfacet
facet normal 0.0 0.0 -1.0
  outer loop
    vertex 1.3582540571110195 3.763313324318997 0.0
    vertex 4.56825405711102 8.373313324318996 0.0
    vertex 4.56825405711102 3.763313324318997 0.0
  endloop
endfacet
facet normal 0.0 0.0 -1.0
  outer loop
    vertex 6.663068937953139 15.245393914102802 0.0
    vertex 4.643068937953136 11.976965256828018 0.0
    vertex 4.643068937953136 15.245393914102802 0.0
  endloop
endfacet
facet normal 0.0 0.0 -1.0
  outer loop
    vertex 4.643068937953136 11.976965256828018 0.0
    vertex 6.663068937953139 15.245393914102802 0.0
    vertex 6.663068937953139 11.976965256828018 0.0
  endloop
endfacet
facet normal 0.0 0.0 -1.0
  outer loop
    vertex 12.78072302106652 9.69188958112138 0.0
    vertex 11.570723021066518 4.25188958112138 0.0
    vertex 11.570723021066518 9.69188958112138 0.0
  endloop
endfacet
facet normal 0.0 0.0 -1.0
  outer loop
    vertex 11.570723021066518 4.25188958112138 0.0
    vertex 12.78072302106652 9.69188958112138 0.0
    vertex 12.78072302106652 4.25188958112138 0.0
  endloop
endfacet
facet normal 0.0 0.0 -1.0
  outer loop
    vertex 13.639281129929254 15.521480387976249 0.0
    vertex 13.138926312044514 11.711930421915342 0.0
    vertex 11.573538444862063 12.988629613298349 0.0
  endloop
endfacet
facet normal 0.0 0.0 -1.0
  outer loop
    vertex 13.138926312044514 11.711930421915342 0.0
    vertex 13.639281129929254 15.521480387976249 0.0
    vertex 15.204668997111694 14.244781196593248 0.0
  endloop
endfacet
facet normal -0.0 -0.0 1.0
  outer loop
    vertex 6.663068937953139 11.976965256828018 4.0
    vertex 4.643068937953136 15.245393914102802 4.0
    vertex 4.643068937953136 11.976965256828018 4.0
  endloop
endfacet
facet normal -0.0 -0.0 1.0
  outer loop
    vertex 4.643068937953136 15.245393914102802 4.0
    vertex 6.663068937953139 11.976965256828018 4.0
    vertex 6.663068937953139 15.245393914102802 4.0
  endloop
endfacet
facet normal 1.0 0.0 0.0
  outer loop
    vertex 6.663068937953139 15.245393914102802 0.0
    vertex 6.663068937953139 11.976965256828018 4.0
    vertex 6.663068937953139 11.976965256828018 0.0
  endloop
endfacet
facet normal 1.0 0.0 0.0
  outer loop
    vertex 6.663068937953139 11.976965256828018 4.0
    vertex 6.663068937953139 15.245393914102802 0.0
    vertex 6.663068937953139 15.245393914102802 4.0
  endloop
endfacet
facet normal -0.0 -1.0 -0.0
  outer loop
    vertex 6.663068937953139 11.976965256828018 4.0
    vertex 4.643068937953136 11.976965256828018 0.0
    vertex 6.663068937953139 11.976965256828018 0.0
  endloop
endfacet
facet normal -0.0 -1.0 -0.0
  outer loop
    vertex 4.643068937953136 11.976965256828018 0.0
    vertex 6.663068937953139 11.976965256828018 4.0
    vertex 4.643068937953136 11.976965256828018 4.0
  endloop
endfacet
facet normal -1.0 0.0 0.0
  outer loop
    vertex 4.643068937953136 15.245393914102802 4.0
    vertex 4.643068937953136 11.976965256828018 0.0
    vertex 4.643068937953136 11.976965256828018 4.0
  endloop
endfacet
facet normal -1.0 0.0 0.0
  outer loop
    vertex 4.643068937953136 11.976965256828018 0.0
    vertex 4.643068937953136 15.245393914102802 4.0
    vertex 4.643068937953136 15.245393914102802 0.0
  endloop
endfacet
facet normal -0.0 1.0 0.0
  outer loop
    vertex 4.643068937953136 15.245393914102802 4.0
    vertex 6.663068937953139 15.245393914102802 0.0
    vertex 4.643068937953136 15.245393914102802 0.0
  endloop
endfacet
facet normal -0.0 1.0 0.0
  outer loop
    vertex 6.663068937953139 15.245393914102802 0.0
    vertex 4.643068937953136 15.245393914102802 4.0
    vertex 6.663068937953139 15.245393914102802 4.0
  endloop
endfacet
facet normal -0.0 -0.0 1.0
  outer loop
    vertex 13.138926312044514 11.711930421915342 4.0
    vertex 13.639281129929254 15.521480387976249 4.0
    vertex 11.573538444862063 12.988629613298349 4.0
  endloop
endfacet
facet normal -0.0 -0.0 1.0
  outer loop
    vertex 13.639281129929254 15.521480387976249 4.0
    vertex 13.138926312044514 11.711930421915342 4.0
    vertex 15.204668997111694 14.244781196593248 4.0
  endloop
endfacet
facet normal 0.7749444887041834 -0.6320293026648462 0.0
  outer loop
    vertex 15.204668997111694 14.244781196593248 0.0
    vertex 13.138926312044514 11.711930421915342 4.0
    vertex 13.138926312044514 11.711930421915342 0.0
  endloop
endfacet
facet normal 0.7749444887041834 -0.6320293026648462 0.0
  outer loop
    vertex 13.138926312044514 11.711930421915342 4.0
    vertex 15.204668997111694 14.244781196593248 0.0
    vertex 15.204668997111694 14.244781196593248 4.0
  endloop
endfacet
facet normal -0.6320293026648512 -0.7749444887041794 -0.0
  outer loop
    vertex 13.138926312044514 11.711930421915342 4.0
    vertex 11.573538444862063 12.988629613298349 0.0
    vertex 13.138926312044514 11.711930421915342 0.0
  endloop
endfacet
facet normal -0.6320293026648512 -0.7749444887041794 -0.0
  outer loop
    vertex 11.573538444862063 12.988629613298349 0.0
    vertex 13.138926312044514 11.711930421915342 4.0
    vertex 11.573538444862063 12.988629613298349 4.0
  endloop
endfacet
facet normal -0.7749444887041813 0.632029302664849 0.0
  outer loop
    vertex 13.639281129929254 15.521480387976249 4.0
    vertex 11.573538444862063 12.988629613298349 0.0
    vertex 11.573538444862063 12.988629613298349 4.0
  endloop
endfacet
facet normal -0.7749444887041813 0.632029302664849 0.0
  outer loop
    vertex 11.573538444862063 12.988629613298349 0.0
    vertex 13.639281129929254 15.521480387976249 4.0
    vertex 13.639281129929254 15.521480387976249 0.0
  endloop
endfacet
facet normal 0.632029302664852 0.7749444887041789 0.0
  outer loop
    vertex 13.639281129929254 15.521480387976249 4.0
    vertex 15.204668997111694 14.244781196593248 0.0
    vertex 13.639281129929254 15.521480387976249 0.0
  endloop
endfacet
facet normal 0.632029302664852 0.7749444887041789 0.0
  outer loop
    vertex 15.204668997111694 14.244781196593248 0.0
    vertex 13.639281129929254 15.521480387976249 4.0
    vertex 15.204668997111694 14.244781196593248 4.0
  endloop
endfacet
facet normal -0.0 -0.0 1.0
  outer loop
    vertex 12.78072302106652 4.25188958112138 4.0
    vertex 11.570723021066518 9.69188958112138 4.0
    vertex 11.570723021066518 4.25188958112138 4.0
  endloop
endfacet
facet normal -0.0 -0.0 1.0
  outer loop
    vertex 11.570723021066518 9.69188958112138 4.0
    vertex 12.78072302106652 4.25188958112138 4.0
    vertex 12.78072302106652 9.69188958112138 4.0
  endloop
endfacet
facet normal -0.0 1.0 0.0
  outer loop
    vertex 11.570723021066518 9.69188958112138 4.0
    vertex 12.78072302106652 9.69188958112138 0.0
    vertex 11.570723021066518 9.69188958112138 0.0
  endloop
endfacet
facet normal -0.0 1.0 0.0
  outer loop
    vertex 12.78072302106652 9.69188958112138 0.0
    vertex 11.570723021066518 9.69188958112138 4.0
    vertex 12.78072302106652 9.69188958112138 4.0
  endloop
endfacet
facet normal 1.0 0.0 0.0
  outer loop
    vertex 12.78072302106652 9.69188958112138 0.0
    vertex 12.78072302106652 4.25188958112138 4.0
    vertex 12.78072302106652 4.25188958112138 0.0
  endloop
endfacet
facet normal 1.0 0.0 0.0
  outer loop
    vertex 12.78072302106652 4.25188958112138 4.0
    vertex 12.78072302106652 9.69188958112138 0.0
    vertex 12.78072302106652 9.69188958112138 4.0
  endloop
endfacet
facet normal -0.0 -1.0 -0.0
  outer loop
    vertex 12.78072302106652 4.25188958112138 4.0
    vertex 11.570723021066518 4.25188958112138 0.0
    vertex 12.78072302106652 4.25188958112138 0.0
  endloop
endfacet
facet normal -0.0 -1.0 -0.0
  outer loop
    vertex 11.570723021066518 4.25188958112138 0.0
    vertex 12.78072302106652 4.25188958112138 4.0
    vertex 11.570723021066518 4.25188958112138 4.0
  endloop
endfacet
facet normal -1.0 0.0 0.0
  outer loop
    vertex 11.570723021066518 9.69188958112138 4.0
    vertex 11.570723021066518 4.25188958112138 0.0
    vertex 11.570723021066518 4.25188958112138 4.0
  endloop
endfacet
facet normal -1.0 0.0 0.0
  outer loop
    vertex 11.570723021066518 4.25188958112138 0.0
    vertex 11.570723021066518 9.69188958112138 4.0
    vertex 11.570723021066518 9.69188958112138 0.0
  endloop
endfacet
facet normal -0.0 -0.0 1.0
  outer loop
    vertex 4.56825405711102 3.763313324318997 4.0
    vertex 1.3582540571110195 8.373313324318996 4.0
    vertex 1.3582540571110195 3.763313324318997 4.0
  endloop
endfacet
facet normal -0.0 -0.0 1.0
  outer loop
    vertex 1.3582540571110195 8.373313324318996 4.0
    vertex 4.56825405711102 3.763313324318997 4.0
    vertex 4.56825405711102 8.373313324318996 4.0
  endloop
endfacet
facet normal 1.0 0.0 0.0
  outer loop
    vertex 4.56825405711102 8.373313324318996 0.0
    vertex 4.56825405711102 3.763313324318997 4.0
    vertex 4.56825405711102 3.763313324318997 0.0
  endloop
endfacet
facet normal 1.0 0.0 0.0
  outer loop
    vertex 4.56825405711102 3.763313324318997 4.0
    vertex 4.56825405711102 8.373313324318996 0.0
    vertex 4.56825405711102 8.373313324318996 4.0
  endloop
endfacet
facet normal -0.0 -1.0 -0.0
  outer loop
    vertex 4.56825405711102 3.763313324318997 4.0
    vertex 1.3582540571110195 3.763313324318997 0.0
    vertex 4.56825405711102 3.763313324318997 0.0
  endloop
endfacet
facet normal -0.0 -1.0 -0.0
  outer loop
    vertex 1.3582540571110195 3.763313324318997 0.0
    vertex 4.56825405711102 3.763313324318997 4.0
    vertex 1.3582540571110195 3.763313324318997 4.0
  endloop
endfacet
facet normal -1.0 0.0 0.0
  outer loop
    vertex 1.3582540571110195 8.373313324318996 4.0
    vertex 1.3582540571110195 3.763313324318997 0.0
    vertex 1.3582540571110195 3.763313324318997 4.0
  endloop
endfacet
facet normal -1.0 0.0 0.0
  outer loop
    vertex 1.3582540571110195 3.763313324318997 0.0
    vertex 1.3582540571110195 8.373313324318996 4.0
    vertex 1.3582540571110195 8.373313324318996 0.0
  endloop
endfacet
facet normal -0.0 1.0 0.0
  outer loop
    vertex 1.3582540571110195 8.373313324318996 4.0
    vertex 4.56825405711102 8.373313324318996 0.0
    vertex 1.3582540571110195 8.373313324318996 0.0
  endloop
endfacet
facet normal -0.0 1.0 0.0
  outer loop
    vertex 4.56825405711102 8.373313324318996 0.0
    vertex 1.3582540571110195 8.373313324318996 4.0
    vertex 4.56825405711102 8.373313324318996 4.0
  endloop
endfacet
endsolid configure2
